<?xml version="1.0" encoding="utf-8"?>
<!-- Generator: Adobe Illustrator 25.2.1, SVG Export Plug-In . SVG Version: 6.00 Build 0)  -->
<svg version="1.1" xmlns="http://www.w3.org/2000/svg" xmlns:xlink="http://www.w3.org/1999/xlink" x="0px" y="0px"
	 viewBox="0 0 2131 800" style="enable-background:new 0 0 2131 800;" xml:space="preserve">
<style type="text/css">
	.st0{fill:#9E2858;}
	.st1{fill:#0E1216;}
	.st2{fill:#207042;}
	.st3{fill:#B3B8C4;}
	.st4{fill:#FFFFFF;}
</style>
<g id="Layer_1">
</g>
<g id="Layer_2">
	<g>
		<rect x="288.2" y="131.2" width="700.7" height="537.7"/>
		<path class="st0" d="M988.7,131.3v537.4H288.3V131.3H988.7 M989,131H288v538h701V131L989,131z"/>
	</g>
	<g>
		<rect x="1142.2" y="131.2" class="st1" width="700.7" height="537.7"/>
		<path class="st2" d="M1842.7,131.3v537.4h-700.4V131.3H1842.7 M1843,131h-701v538h701V131L1843,131z"/>
	</g>
	<g>
		<path class="st3" d="M1384.5,346.5H1342v118h-17.3v-118h-42.4v-14.3h102.3V346.5z"/>
		<path class="st3" d="M1478.8,403.3h-57.3v46.9h66.6v14.3h-84V332.2h83.1v14.3h-65.7v42.6h57.3V403.3z"/>
		<path class="st3" d="M1552.9,382.9l31.7-50.7h20.5l-41.8,65.6l42.8,66.7h-20.7l-32.5-51.6l-32.7,51.6h-20.6l42.9-66.7l-41.9-65.6
			h20.4L1552.9,382.9z"/>
		<path class="st3" d="M1717.8,346.5h-42.5v118h-17.3v-118h-42.4v-14.3h102.3V346.5z"/>
	</g>
	<g>
		<path class="st4" d="M497.5,346.5H455v118h-17.3v-118h-42.4v-14.3h102.3V346.5z"/>
		<path class="st4" d="M591.8,403.3h-57.3v46.9h66.6v14.3h-84V332.2h83.1v14.3h-65.7v42.6h57.3V403.3z"/>
		<path class="st4" d="M665.9,382.9l31.7-50.7h20.5l-41.8,65.6l42.8,66.7h-20.7l-32.5-51.6l-32.7,51.6h-20.6l42.9-66.7l-41.9-65.6
			H634L665.9,382.9z"/>
		<path class="st4" d="M830.7,346.5h-42.5v118h-17.3v-118h-42.4v-14.3h102.3V346.5z"/>
	</g>
	<g>
	</g>
	<g>
	</g>
	<g>
	</g>
	<g>
	</g>
	<g>
	</g>
	<g>
	</g>
	<g>
	</g>
	<g>
	</g>
	<g>
	</g>
	<g>
	</g>
	<g>
	</g>
	<g>
	</g>
	<g>
	</g>
	<g>
	</g>
	<g>
	</g>
</g>
</svg>
