<?xml version="1.0" encoding="utf-8"?>
<!-- Generator: Adobe Illustrator 25.2.1, SVG Export Plug-In . SVG Version: 6.00 Build 0)  -->
<svg version="1.1" id="Layer_1" xmlns="http://www.w3.org/2000/svg" xmlns:xlink="http://www.w3.org/1999/xlink" x="0px" y="0px"
	 viewBox="0 0 1475.6 365.1" style="enable-background:new 0 0 1475.6 365.1;" xml:space="preserve">
<style type="text/css">
	.st0{fill:#FFFFFF;}
</style>
<g>
	<g>
		<path class="st0" d="M375.7,271.1h-3.2c-8.6,0-12.8-4.4-12.8-13.1V145.4c0-6.4,2.1-11.8,6.4-16l10.3-10.3
			c4.3-4.3,9.5-6.4,15.7-6.4h20.2c3.2,0,6,0.5,8.5,1.6c2.5,1.1,4.9,2.8,7.2,5.1c2.8,3,5.6,4.5,8.3,4.5c2.4,0,4.7-1.3,7.1-3.8
			l0.6-0.6c2.4-2.4,4.8-4.1,7.2-5.1c2.5-1.1,5.3-1.6,8.5-1.6h18.9c3.2,0,6,0.5,8.5,1.6c2.5,1.1,4.9,2.8,7.2,5.1l10.3,10.3
			c4.3,4.3,6.4,9.5,6.4,15.7v112.6c0,8.8-4.3,13.1-12.8,13.1H495c-8.6,0-12.8-4.4-12.8-13.1V154.7c0-8.5-4.3-12.8-12.8-12.8h-6.1
			c-8.6,0-12.8,4.3-12.8,12.8v103.3c0,8.8-4.3,13.1-12.8,13.1h-3.2c-8.6,0-12.8-4.4-12.8-13.1V154.7c0-8.5-4.3-12.8-12.8-12.8h-7.4
			c-8.6,0-12.8,4.3-12.8,12.8v103.3C388.5,266.7,384.3,271.1,375.7,271.1z"/>
		<path class="st0" d="M563.3,264.3l-10.6-10.6c-4.3-4.3-6.4-9.5-6.4-15.7v-37.2c0-3.2,0.5-6,1.6-8.5c1.1-2.5,2.8-4.9,5.1-7.2
			l10.3-10.3c4.3-4.1,9.5-6.1,15.7-6.1h30.5c8.5,0,12.8-4.4,12.8-13.2v-1c0-8.5-4.3-12.8-12.8-12.8h-49.4c-8.6,0-12.8-4.3-12.8-12.8
			v-3.5c0-8.5,4.3-12.8,12.8-12.8h58.7c6.2,0,11.4,2.1,15.7,6.4l10.6,10.6c4.3,4.3,6.4,9.5,6.4,15.7v112.6c0,8.8-4.3,13.1-12.8,13.1
			H579C572.8,271.1,567.6,268.8,563.3,264.3z M609.5,195.1h-21.2c-8.6,0-12.8,4.2-12.8,12.5v24c0,8.8,4.3,13.2,12.8,13.2h21.2
			c8.5,0,12.8-4.4,12.8-13.2v-24C622.3,199.2,618,195.1,609.5,195.1z"/>
		<path class="st0" d="M704.7,65.5c3.4,0,6.7,1.6,9.9,4.8c3.2,3.2,4.8,6.5,4.8,9.9c0,3.4-1.6,6.7-4.8,9.9c-3.2,3.2-6.5,4.8-9.9,4.8
			c-3.4,0-6.7-1.6-9.9-4.8c-3.2-3.2-4.8-6.5-4.8-9.9c0-3.4,1.6-6.7,4.8-9.9C698,67.1,701.3,65.5,704.7,65.5z M703.1,112.7h3.2
			c8.5,0,12.8,4.3,12.8,12.8v132.8c0,8.6-4.3,12.8-12.8,12.8h-3.2c-8.6,0-12.8-4.3-12.8-12.8V125.5
			C690.3,116.9,694.6,112.7,703.1,112.7z"/>
		<path class="st0" d="M767.6,40.2h3.2c8.5,0,12.8,4.4,12.8,13.1v204.9c0,8.6-4.3,12.8-12.8,12.8h-3.2c-8.6,0-12.8-4.3-12.8-12.8
			V53.3C754.7,44.6,759,40.2,767.6,40.2z"/>
		<path class="st0" d="M815.7,258.6V54.3c0-9,4.3-13.5,12.8-13.5h3.5c8.5,0,12.8,4.5,12.8,13.5v45.5c0,8.6,4.3,12.8,12.8,12.8h29.5
			c6.2,0,11.4,2.1,15.7,6.4l10.6,10.6c4.3,4.3,6.4,9.5,6.4,15.7v113.2c0,8.6-4.3,12.8-12.8,12.8h-3.5c-8.6,0-12.8-4.3-12.8-12.8
			V154.7c0-8.5-4.3-12.8-12.8-12.8h-20.2c-8.6,0-12.8,4.3-12.8,12.8v103.9c0,8.6-4.3,12.8-12.8,12.8h-3.5
			C819.9,271.4,815.7,267.1,815.7,258.6z"/>
		<path class="st0" d="M1027.3,177.8v-52.3c0-8.5,4.3-12.8,12.8-12.8h3.5c8.5,0,12.8,4.3,12.8,12.8v141.7c0,6.2-2.1,11.4-6.4,15.7
			l-10.6,10.6c-4.3,4.1-9.5,6.1-15.7,6.1h-56.1c-8.6,0-12.8-4.2-12.8-12.5v-3.5c0-8.8,4.3-13.1,12.8-13.1h46.8
			c8.5,0,12.8-4.2,12.8-12.5v-25.3c0-8.8-4.3-13.1-12.8-13.1h-29.8c-6.2,0-11.4-2-15.7-6.1l-10.6-10.6c-4.3-4.3-6.4-9.5-6.4-15.7
			v-61.6c0-8.5,4.3-12.8,12.8-12.8h3.5c8.5,0,12.8,4.3,12.8,12.8v52.3c0,8.3,4.3,12.5,12.8,12.5h20.5
			C1023,190.3,1027.3,186.1,1027.3,177.8z"/>
		<path class="st0" d="M1121.3,112.7h29.5c8.5,0,12.8-4.3,12.8-12.8V53.7c0-8.5,4.3-12.8,12.8-12.8h3.5c8.5,0,12.8,4.3,12.8,12.8
			v204.6c0,8.6-4.3,12.8-12.8,12.8h-58.7c-6.2,0-11.4-2.1-15.7-6.4l-10.6-10.6c-4.3-4.3-6.4-9.5-6.4-15.7V145
			c0-6.2,2.1-11.4,6.4-15.7l10.3-10.3C1109.5,114.8,1114.8,112.7,1121.3,112.7z M1130.6,241.9h20.2c8.5,0,12.8-4.3,12.8-12.8v-74.4
			c0-8.5-4.3-12.8-12.8-12.8h-20.2c-8.6,0-12.8,4.3-12.8,12.8v74.4C1117.7,237.6,1122,241.9,1130.6,241.9z"/>
		<path class="st0" d="M1244.4,271.1h-3.5c-8.6,0-12.8-4.4-12.8-13.1V145.4c0-6.2,2.1-11.4,6.4-15.7l10.6-10.6
			c4.3-4.3,9.5-6.4,15.7-6.4h5.8c8.5,0,12.8,4.3,12.8,12.8v3.5c0,8.6-3.6,12.8-10.9,12.8c-3.6,0-6.4,1.1-8.3,3.4
			c-1.9,2.2-2.9,5.4-2.9,9.5v103.3C1257.2,266.7,1252.9,271.1,1244.4,271.1z"/>
		<path class="st0" d="M1315.6,264.3l-10.6-10.6c-4.3-4.3-6.4-9.5-6.4-15.7v-37.2c0-3.2,0.5-6,1.6-8.5c1.1-2.5,2.8-4.9,5.1-7.2
			l10.3-10.3c4.3-4.1,9.5-6.1,15.7-6.1h30.5c8.5,0,12.8-4.4,12.8-13.2v-1c0-8.5-4.3-12.8-12.8-12.8h-49.4c-8.6,0-12.8-4.3-12.8-12.8
			v-3.5c0-8.5,4.3-12.8,12.8-12.8h58.7c6.2,0,11.4,2.1,15.7,6.4l10.6,10.6c4.3,4.3,6.4,9.5,6.4,15.7v112.6c0,8.8-4.3,13.1-12.8,13.1
			h-59.6C1325.1,271.1,1319.9,268.8,1315.6,264.3z M1361.8,195.1h-21.2c-8.6,0-12.8,4.2-12.8,12.5v24c0,8.8,4.3,13.2,12.8,13.2h21.2
			c8.5,0,12.8-4.4,12.8-13.2v-24C1374.6,199.2,1370.3,195.1,1361.8,195.1z"/>
	</g>
	<g>
		<path class="st0" d="M293.4,225.8l-7-14.4v-79.2c0-10.2-9.1-18.5-20.3-18.5h-52.1c-11.2,0-20.3,8.3-20.3,18.5v26.6h21.5
			c12.8,0,23.2,10.4,23.2,23.2v90.7h27.5c11.2,0,20.3-8.3,20.3-18.5v-22.7l5.6-2.3C293.4,228.6,294.1,227.1,293.4,225.8z
			 M276.6,181.9l-1.7,5.1c-0.7,2.2-3.1,3.4-5.3,2.6l-17.4-5.8c-2.2-0.7-3.4-3.1-2.7-5.3l1.7-5.1c0.7-2.2,3.1-3.4,5.3-2.7l17.4,5.8
			C276.1,177.3,277.3,179.7,276.6,181.9z M132.1,113.7H80.1c-11.2,0-20.3,8.3-20.3,18.5v79.2l-7,14.4c-0.6,1.3,0,2.8,1.4,3.3
			l5.6,2.3v22.7c0,10.2,9.1,18.5,20.3,18.5h36.4V182c0-12.8,10.4-23.2,23.2-23.2h12.7v-26.6C152.4,122,143.3,113.7,132.1,113.7z
			 M94,183.9l-17.4,5.8c-2.2,0.7-4.5-0.5-5.3-2.6l-1.7-5.1c-0.7-2.2,0.5-4.5,2.6-5.3l17.4-5.8c2.2-0.7,4.5,0.5,5.3,2.7l1.7,5.1
			C97.4,180.8,96.2,183.2,94,183.9z M293.4,225.8l-7-14.4v-79.2c0-10.2-9.1-18.5-20.3-18.5h-52.1c-11.2,0-20.3,8.3-20.3,18.5v26.6
			h21.5c12.8,0,23.2,10.4,23.2,23.2v90.7h27.5c11.2,0,20.3-8.3,20.3-18.5v-22.7l5.6-2.3C293.4,228.6,294.1,227.1,293.4,225.8z
			 M276.6,181.9l-1.7,5.1c-0.7,2.2-3.1,3.4-5.3,2.6l-17.4-5.8c-2.2-0.7-3.4-3.1-2.7-5.3l1.7-5.1c0.7-2.2,3.1-3.4,5.3-2.7l17.4,5.8
			C276.1,177.3,277.3,179.7,276.6,181.9z M132.1,113.7H80.1c-11.2,0-20.3,8.3-20.3,18.5v79.2l-7,14.4c-0.6,1.3,0,2.8,1.4,3.3
			l5.6,2.3v22.7c0,10.2,9.1,18.5,20.3,18.5h36.4V182c0-12.8,10.4-23.2,23.2-23.2h12.7v-26.6C152.4,122,143.3,113.7,132.1,113.7z
			 M94,183.9l-17.4,5.8c-2.2,0.7-4.5-0.5-5.3-2.6l-1.7-5.1c-0.7-2.2,0.5-4.5,2.6-5.3l17.4-5.8c2.2-0.7,4.5,0.5,5.3,2.7l1.7,5.1
			C97.4,180.8,96.2,183.2,94,183.9z M132.1,113.7H80.1c-11.2,0-20.3,8.3-20.3,18.5v79.2l-7,14.4c-0.6,1.3,0,2.8,1.4,3.3l5.6,2.3
			v22.7c0,10.2,9.1,18.5,20.3,18.5h36.4V182c0-12.8,10.4-23.2,23.2-23.2h12.7v-26.6C152.4,122,143.3,113.7,132.1,113.7z M94,183.9
			l-17.4,5.8c-2.2,0.7-4.5-0.5-5.3-2.6l-1.7-5.1c-0.7-2.2,0.5-4.5,2.6-5.3l17.4-5.8c2.2-0.7,4.5,0.5,5.3,2.7l1.7,5.1
			C97.4,180.8,96.2,183.2,94,183.9z M293.4,225.8l-7-14.4v-79.2c0-10.2-9.1-18.5-20.3-18.5h-52.1c-11.2,0-20.3,8.3-20.3,18.5v26.6
			h21.5c12.8,0,23.2,10.4,23.2,23.2v90.7h27.5c11.2,0,20.3-8.3,20.3-18.5v-22.7l5.6-2.3C293.4,228.6,294.1,227.1,293.4,225.8z
			 M276.6,181.9l-1.7,5.1c-0.7,2.2-3.1,3.4-5.3,2.6l-17.4-5.8c-2.2-0.7-3.4-3.1-2.7-5.3l1.7-5.1c0.7-2.2,3.1-3.4,5.3-2.7l17.4,5.8
			C276.1,177.3,277.3,179.7,276.6,181.9z M132.1,113.7H80.1c-11.2,0-20.3,8.3-20.3,18.5v79.2l-7,14.4c-0.6,1.3,0,2.8,1.4,3.3
			l5.6,2.3v22.7c0,10.2,9.1,18.5,20.3,18.5h36.4V182c0-12.8,10.4-23.2,23.2-23.2h12.7v-26.6C152.4,122,143.3,113.7,132.1,113.7z
			 M94,183.9l-17.4,5.8c-2.2,0.7-4.5-0.5-5.3-2.6l-1.7-5.1c-0.7-2.2,0.5-4.5,2.6-5.3l17.4-5.8c2.2-0.7,4.5,0.5,5.3,2.7l1.7,5.1
			C97.4,180.8,96.2,183.2,94,183.9z M132.1,113.7H80.1c-11.2,0-20.3,8.3-20.3,18.5v79.2l-7,14.4c-0.6,1.3,0,2.8,1.4,3.3l5.6,2.3
			v22.7c0,10.2,9.1,18.5,20.3,18.5h36.4V182c0-12.8,10.4-23.2,23.2-23.2h12.7v-26.6C152.4,122,143.3,113.7,132.1,113.7z M94,183.9
			l-17.4,5.8c-2.2,0.7-4.5-0.5-5.3-2.6l-1.7-5.1c-0.7-2.2,0.5-4.5,2.6-5.3l17.4-5.8c2.2-0.7,4.5,0.5,5.3,2.7l1.7,5.1
			C97.4,180.8,96.2,183.2,94,183.9z M293.4,225.8l-7-14.4v-79.2c0-10.2-9.1-18.5-20.3-18.5h-52.1c-11.2,0-20.3,8.3-20.3,18.5v26.6
			h21.5c12.8,0,23.2,10.4,23.2,23.2v90.7h27.5c11.2,0,20.3-8.3,20.3-18.5v-22.7l5.6-2.3C293.4,228.6,294.1,227.1,293.4,225.8z
			 M276.6,181.9l-1.7,5.1c-0.7,2.2-3.1,3.4-5.3,2.6l-17.4-5.8c-2.2-0.7-3.4-3.1-2.7-5.3l1.7-5.1c0.7-2.2,3.1-3.4,5.3-2.7l17.4,5.8
			C276.1,177.3,277.3,179.7,276.6,181.9z M132.1,113.7H80.1c-11.2,0-20.3,8.3-20.3,18.5v79.2l-7,14.4c-0.6,1.3,0,2.8,1.4,3.3
			l5.6,2.3v22.7c0,10.2,9.1,18.5,20.3,18.5h36.4V182c0-12.8,10.4-23.2,23.2-23.2h12.7v-26.6C152.4,122,143.3,113.7,132.1,113.7z
			 M94,183.9l-17.4,5.8c-2.2,0.7-4.5-0.5-5.3-2.6l-1.7-5.1c-0.7-2.2,0.5-4.5,2.6-5.3l17.4-5.8c2.2-0.7,4.5,0.5,5.3,2.7l1.7,5.1
			C97.4,180.8,96.2,183.2,94,183.9z M132.1,113.7H80.1c-11.2,0-20.3,8.3-20.3,18.5v79.2l-7,14.4c-0.6,1.3,0,2.8,1.4,3.3l5.6,2.3
			v22.7c0,10.2,9.1,18.5,20.3,18.5h36.4V182c0-12.8,10.4-23.2,23.2-23.2h12.7v-26.6C152.4,122,143.3,113.7,132.1,113.7z M94,183.9
			l-17.4,5.8c-2.2,0.7-4.5-0.5-5.3-2.6l-1.7-5.1c-0.7-2.2,0.5-4.5,2.6-5.3l17.4-5.8c2.2-0.7,4.5,0.5,5.3,2.7l1.7,5.1
			C97.4,180.8,96.2,183.2,94,183.9z M293.4,225.8l-7-14.4v-79.2c0-10.2-9.1-18.5-20.3-18.5h-52.1c-11.2,0-20.3,8.3-20.3,18.5v26.6
			h21.5c12.8,0,23.2,10.4,23.2,23.2v90.7h27.5c11.2,0,20.3-8.3,20.3-18.5v-22.7l5.6-2.3C293.4,228.6,294.1,227.1,293.4,225.8z
			 M276.6,181.9l-1.7,5.1c-0.7,2.2-3.1,3.4-5.3,2.6l-17.4-5.8c-2.2-0.7-3.4-3.1-2.7-5.3l1.7-5.1c0.7-2.2,3.1-3.4,5.3-2.7l17.4,5.8
			C276.1,177.3,277.3,179.7,276.6,181.9z M293.4,225.8l-7-14.4v-79.2c0-10.2-9.1-18.5-20.3-18.5h-52.1c-11.2,0-20.3,8.3-20.3,18.5
			v26.6h21.5c12.8,0,23.2,10.4,23.2,23.2v90.7h27.5c11.2,0,20.3-8.3,20.3-18.5v-22.7l5.6-2.3C293.4,228.6,294.1,227.1,293.4,225.8z
			 M276.6,181.9l-1.7,5.1c-0.7,2.2-3.1,3.4-5.3,2.6l-17.4-5.8c-2.2-0.7-3.4-3.1-2.7-5.3l1.7-5.1c0.7-2.2,3.1-3.4,5.3-2.7l17.4,5.8
			C276.1,177.3,277.3,179.7,276.6,181.9z M132.1,113.7H80.1c-11.2,0-20.3,8.3-20.3,18.5v79.2l-7,14.4c-0.6,1.3,0,2.8,1.4,3.3
			l5.6,2.3v22.7c0,10.2,9.1,18.5,20.3,18.5h36.4V182c0-12.8,10.4-23.2,23.2-23.2h12.7v-26.6C152.4,122,143.3,113.7,132.1,113.7z
			 M94,183.9l-17.4,5.8c-2.2,0.7-4.5-0.5-5.3-2.6l-1.7-5.1c-0.7-2.2,0.5-4.5,2.6-5.3l17.4-5.8c2.2-0.7,4.5,0.5,5.3,2.7l1.7,5.1
			C97.4,180.8,96.2,183.2,94,183.9z M132.1,113.7H80.1c-11.2,0-20.3,8.3-20.3,18.5v79.2l-7,14.4c-0.6,1.3,0,2.8,1.4,3.3l5.6,2.3
			v22.7c0,10.2,9.1,18.5,20.3,18.5h36.4V182c0-12.8,10.4-23.2,23.2-23.2h12.7v-26.6C152.4,122,143.3,113.7,132.1,113.7z M94,183.9
			l-17.4,5.8c-2.2,0.7-4.5-0.5-5.3-2.6l-1.7-5.1c-0.7-2.2,0.5-4.5,2.6-5.3l17.4-5.8c2.2-0.7,4.5,0.5,5.3,2.7l1.7,5.1
			C97.4,180.8,96.2,183.2,94,183.9z M293.4,225.8l-7-14.4v-79.2c0-10.2-9.1-18.5-20.3-18.5h-52.1c-11.2,0-20.3,8.3-20.3,18.5v26.6
			h21.5c12.8,0,23.2,10.4,23.2,23.2v90.7h27.5c11.2,0,20.3-8.3,20.3-18.5v-22.7l5.6-2.3C293.4,228.6,294.1,227.1,293.4,225.8z
			 M276.6,181.9l-1.7,5.1c-0.7,2.2-3.1,3.4-5.3,2.6l-17.4-5.8c-2.2-0.7-3.4-3.1-2.7-5.3l1.7-5.1c0.7-2.2,3.1-3.4,5.3-2.7l17.4,5.8
			C276.1,177.3,277.3,179.7,276.6,181.9z M293.4,225.8l-7-14.4v-79.2c0-10.2-9.1-18.5-20.3-18.5h-52.1c-11.2,0-20.3,8.3-20.3,18.5
			v26.6h21.5c12.8,0,23.2,10.4,23.2,23.2v90.7h27.5c11.2,0,20.3-8.3,20.3-18.5v-22.7l5.6-2.3C293.4,228.6,294.1,227.1,293.4,225.8z
			 M276.6,181.9l-1.7,5.1c-0.7,2.2-3.1,3.4-5.3,2.6l-17.4-5.8c-2.2-0.7-3.4-3.1-2.7-5.3l1.7-5.1c0.7-2.2,3.1-3.4,5.3-2.7l17.4,5.8
			C276.1,177.3,277.3,179.7,276.6,181.9z M132.1,113.7H80.1c-11.2,0-20.3,8.3-20.3,18.5v79.2l-7,14.4c-0.6,1.3,0,2.8,1.4,3.3
			l5.6,2.3v22.7c0,10.2,9.1,18.5,20.3,18.5h36.4V182c0-12.8,10.4-23.2,23.2-23.2h12.7v-26.6C152.4,122,143.3,113.7,132.1,113.7z
			 M94,183.9l-17.4,5.8c-2.2,0.7-4.5-0.5-5.3-2.6l-1.7-5.1c-0.7-2.2,0.5-4.5,2.6-5.3l17.4-5.8c2.2-0.7,4.5,0.5,5.3,2.7l1.7,5.1
			C97.4,180.8,96.2,183.2,94,183.9z M132.1,113.7H80.1c-11.2,0-20.3,8.3-20.3,18.5v79.2l-7,14.4c-0.6,1.3,0,2.8,1.4,3.3l5.6,2.3
			v22.7c0,10.2,9.1,18.5,20.3,18.5h36.4V182c0-12.8,10.4-23.2,23.2-23.2h12.7v-26.6C152.4,122,143.3,113.7,132.1,113.7z M94,183.9
			l-17.4,5.8c-2.2,0.7-4.5-0.5-5.3-2.6l-1.7-5.1c-0.7-2.2,0.5-4.5,2.6-5.3l17.4-5.8c2.2-0.7,4.5,0.5,5.3,2.7l1.7,5.1
			C97.4,180.8,96.2,183.2,94,183.9z M293.4,225.8l-7-14.4v-79.2c0-10.2-9.1-18.5-20.3-18.5h-52.1c-11.2,0-20.3,8.3-20.3,18.5v26.6
			h21.5c12.8,0,23.2,10.4,23.2,23.2v90.7h27.5c11.2,0,20.3-8.3,20.3-18.5v-22.7l5.6-2.3C293.4,228.6,294.1,227.1,293.4,225.8z
			 M276.6,181.9l-1.7,5.1c-0.7,2.2-3.1,3.4-5.3,2.6l-17.4-5.8c-2.2-0.7-3.4-3.1-2.7-5.3l1.7-5.1c0.7-2.2,3.1-3.4,5.3-2.7l17.4,5.8
			C276.1,177.3,277.3,179.7,276.6,181.9z M293.4,225.8l-7-14.4v-79.2c0-10.2-9.1-18.5-20.3-18.5h-52.1c-11.2,0-20.3,8.3-20.3,18.5
			v26.6h21.5c12.8,0,23.2,10.4,23.2,23.2v90.7h27.5c11.2,0,20.3-8.3,20.3-18.5v-22.7l5.6-2.3C293.4,228.6,294.1,227.1,293.4,225.8z
			 M276.6,181.9l-1.7,5.1c-0.7,2.2-3.1,3.4-5.3,2.6l-17.4-5.8c-2.2-0.7-3.4-3.1-2.7-5.3l1.7-5.1c0.7-2.2,3.1-3.4,5.3-2.7l17.4,5.8
			C276.1,177.3,277.3,179.7,276.6,181.9z M132.1,113.7H80.1c-11.2,0-20.3,8.3-20.3,18.5v79.2l-7,14.4c-0.6,1.3,0,2.8,1.4,3.3
			l5.6,2.3v22.7c0,10.2,9.1,18.5,20.3,18.5h36.4V182c0-12.8,10.4-23.2,23.2-23.2h12.7v-26.6C152.4,122,143.3,113.7,132.1,113.7z
			 M94,183.9l-17.4,5.8c-2.2,0.7-4.5-0.5-5.3-2.6l-1.7-5.1c-0.7-2.2,0.5-4.5,2.6-5.3l17.4-5.8c2.2-0.7,4.5,0.5,5.3,2.7l1.7,5.1
			C97.4,180.8,96.2,183.2,94,183.9z M132.1,113.7H80.1c-11.2,0-20.3,8.3-20.3,18.5v79.2l-7,14.4c-0.6,1.3,0,2.8,1.4,3.3l5.6,2.3
			v22.7c0,10.2,9.1,18.5,20.3,18.5h36.4V182c0-12.8,10.4-23.2,23.2-23.2h12.7v-26.6C152.4,122,143.3,113.7,132.1,113.7z M94,183.9
			l-17.4,5.8c-2.2,0.7-4.5-0.5-5.3-2.6l-1.7-5.1c-0.7-2.2,0.5-4.5,2.6-5.3l17.4-5.8c2.2-0.7,4.5,0.5,5.3,2.7l1.7,5.1
			C97.4,180.8,96.2,183.2,94,183.9z M293.4,225.8l-7-14.4v-79.2c0-10.2-9.1-18.5-20.3-18.5h-52.1c-11.2,0-20.3,8.3-20.3,18.5v26.6
			h21.5c12.8,0,23.2,10.4,23.2,23.2v90.7h27.5c11.2,0,20.3-8.3,20.3-18.5v-22.7l5.6-2.3C293.4,228.6,294.1,227.1,293.4,225.8z
			 M276.6,181.9l-1.7,5.1c-0.7,2.2-3.1,3.4-5.3,2.6l-17.4-5.8c-2.2-0.7-3.4-3.1-2.7-5.3l1.7-5.1c0.7-2.2,3.1-3.4,5.3-2.7l17.4,5.8
			C276.1,177.3,277.3,179.7,276.6,181.9z M293.4,225.8l-7-14.4v-79.2c0-10.2-9.1-18.5-20.3-18.5h-52.1c-11.2,0-20.3,8.3-20.3,18.5
			v26.6h21.5c12.8,0,23.2,10.4,23.2,23.2v90.7h27.5c11.2,0,20.3-8.3,20.3-18.5v-22.7l5.6-2.3C293.4,228.6,294.1,227.1,293.4,225.8z
			 M276.6,181.9l-1.7,5.1c-0.7,2.2-3.1,3.4-5.3,2.6l-17.4-5.8c-2.2-0.7-3.4-3.1-2.7-5.3l1.7-5.1c0.7-2.2,3.1-3.4,5.3-2.7l17.4,5.8
			C276.1,177.3,277.3,179.7,276.6,181.9z M132.1,113.7H80.1c-11.2,0-20.3,8.3-20.3,18.5v79.2l-7,14.4c-0.6,1.3,0,2.8,1.4,3.3
			l5.6,2.3v22.7c0,10.2,9.1,18.5,20.3,18.5h36.4V182c0-12.8,10.4-23.2,23.2-23.2h12.7v-26.6C152.4,122,143.3,113.7,132.1,113.7z
			 M94,183.9l-17.4,5.8c-2.2,0.7-4.5-0.5-5.3-2.6l-1.7-5.1c-0.7-2.2,0.5-4.5,2.6-5.3l17.4-5.8c2.2-0.7,4.5,0.5,5.3,2.7l1.7,5.1
			C97.4,180.8,96.2,183.2,94,183.9z M293.4,225.8l-7-14.4v-79.2c0-10.2-9.1-18.5-20.3-18.5h-52.1c-11.2,0-20.3,8.3-20.3,18.5v26.6
			h21.5c12.8,0,23.2,10.4,23.2,23.2v90.7h27.5c11.2,0,20.3-8.3,20.3-18.5v-22.7l5.6-2.3C293.4,228.6,294.1,227.1,293.4,225.8z
			 M276.6,181.9l-1.7,5.1c-0.7,2.2-3.1,3.4-5.3,2.6l-17.4-5.8c-2.2-0.7-3.4-3.1-2.7-5.3l1.7-5.1c0.7-2.2,3.1-3.4,5.3-2.7l17.4,5.8
			C276.1,177.3,277.3,179.7,276.6,181.9z M132.1,113.7H80.1c-11.2,0-20.3,8.3-20.3,18.5v79.2l-7,14.4c-0.6,1.3,0,2.8,1.4,3.3
			l5.6,2.3v22.7c0,10.2,9.1,18.5,20.3,18.5h36.4V182c0-12.8,10.4-23.2,23.2-23.2h12.7v-26.6C152.4,122,143.3,113.7,132.1,113.7z
			 M94,183.9l-17.4,5.8c-2.2,0.7-4.5-0.5-5.3-2.6l-1.7-5.1c-0.7-2.2,0.5-4.5,2.6-5.3l17.4-5.8c2.2-0.7,4.5,0.5,5.3,2.7l1.7,5.1
			C97.4,180.8,96.2,183.2,94,183.9z M132.1,113.7H80.1c-11.2,0-20.3,8.3-20.3,18.5v79.2l-7,14.4c-0.6,1.3,0,2.8,1.4,3.3l5.6,2.3
			v22.7c0,10.2,9.1,18.5,20.3,18.5h36.4V182c0-12.8,10.4-23.2,23.2-23.2h12.7v-26.6C152.4,122,143.3,113.7,132.1,113.7z M94,183.9
			l-17.4,5.8c-2.2,0.7-4.5-0.5-5.3-2.6l-1.7-5.1c-0.7-2.2,0.5-4.5,2.6-5.3l17.4-5.8c2.2-0.7,4.5,0.5,5.3,2.7l1.7,5.1
			C97.4,180.8,96.2,183.2,94,183.9z M293.4,225.8l-7-14.4v-79.2c0-10.2-9.1-18.5-20.3-18.5h-52.1c-11.2,0-20.3,8.3-20.3,18.5v26.6
			h21.5c12.8,0,23.2,10.4,23.2,23.2v90.7h27.5c11.2,0,20.3-8.3,20.3-18.5v-22.7l5.6-2.3C293.4,228.6,294.1,227.1,293.4,225.8z
			 M276.6,181.9l-1.7,5.1c-0.7,2.2-3.1,3.4-5.3,2.6l-17.4-5.8c-2.2-0.7-3.4-3.1-2.7-5.3l1.7-5.1c0.7-2.2,3.1-3.4,5.3-2.7l17.4,5.8
			C276.1,177.3,277.3,179.7,276.6,181.9z M293.4,225.8l-7-14.4v-79.2c0-10.2-9.1-18.5-20.3-18.5h-52.1c-11.2,0-20.3,8.3-20.3,18.5
			v26.6h21.5c12.8,0,23.2,10.4,23.2,23.2v90.7h27.5c11.2,0,20.3-8.3,20.3-18.5v-22.7l5.6-2.3C293.4,228.6,294.1,227.1,293.4,225.8z
			 M276.6,181.9l-1.7,5.1c-0.7,2.2-3.1,3.4-5.3,2.6l-17.4-5.8c-2.2-0.7-3.4-3.1-2.7-5.3l1.7-5.1c0.7-2.2,3.1-3.4,5.3-2.7l17.4,5.8
			C276.1,177.3,277.3,179.7,276.6,181.9z M132.1,113.7H80.1c-11.2,0-20.3,8.3-20.3,18.5v79.2l-7,14.4c-0.6,1.3,0,2.8,1.4,3.3
			l5.6,2.3v22.7c0,10.2,9.1,18.5,20.3,18.5h36.4V182c0-12.8,10.4-23.2,23.2-23.2h12.7v-26.6C152.4,122,143.3,113.7,132.1,113.7z
			 M94,183.9l-17.4,5.8c-2.2,0.7-4.5-0.5-5.3-2.6l-1.7-5.1c-0.7-2.2,0.5-4.5,2.6-5.3l17.4-5.8c2.2-0.7,4.5,0.5,5.3,2.7l1.7,5.1
			C97.4,180.8,96.2,183.2,94,183.9z M132.1,113.7H80.1c-11.2,0-20.3,8.3-20.3,18.5v79.2l-7,14.4c-0.6,1.3,0,2.8,1.4,3.3l5.6,2.3
			v22.7c0,10.2,9.1,18.5,20.3,18.5h36.4V182c0-12.8,10.4-23.2,23.2-23.2h12.7v-26.6C152.4,122,143.3,113.7,132.1,113.7z M94,183.9
			l-17.4,5.8c-2.2,0.7-4.5-0.5-5.3-2.6l-1.7-5.1c-0.7-2.2,0.5-4.5,2.6-5.3l17.4-5.8c2.2-0.7,4.5,0.5,5.3,2.7l1.7,5.1
			C97.4,180.8,96.2,183.2,94,183.9z M293.4,225.8l-7-14.4v-79.2c0-10.2-9.1-18.5-20.3-18.5h-52.1c-11.2,0-20.3,8.3-20.3,18.5v26.6
			h21.5c12.8,0,23.2,10.4,23.2,23.2v90.7h27.5c11.2,0,20.3-8.3,20.3-18.5v-22.7l5.6-2.3C293.4,228.6,294.1,227.1,293.4,225.8z
			 M276.6,181.9l-1.7,5.1c-0.7,2.2-3.1,3.4-5.3,2.6l-17.4-5.8c-2.2-0.7-3.4-3.1-2.7-5.3l1.7-5.1c0.7-2.2,3.1-3.4,5.3-2.7l17.4,5.8
			C276.1,177.3,277.3,179.7,276.6,181.9z M293.4,225.8l-7-14.4v-79.2c0-10.2-9.1-18.5-20.3-18.5h-52.1c-11.2,0-20.3,8.3-20.3,18.5
			v26.6h21.5c12.8,0,23.2,10.4,23.2,23.2v90.7h27.5c11.2,0,20.3-8.3,20.3-18.5v-22.7l5.6-2.3C293.4,228.6,294.1,227.1,293.4,225.8z
			 M276.6,181.9l-1.7,5.1c-0.7,2.2-3.1,3.4-5.3,2.6l-17.4-5.8c-2.2-0.7-3.4-3.1-2.7-5.3l1.7-5.1c0.7-2.2,3.1-3.4,5.3-2.7l17.4,5.8
			C276.1,177.3,277.3,179.7,276.6,181.9z M132.1,113.7H80.1c-11.2,0-20.3,8.3-20.3,18.5v79.2l-7,14.4c-0.6,1.3,0,2.8,1.4,3.3
			l5.6,2.3v22.7c0,10.2,9.1,18.5,20.3,18.5h36.4V182c0-12.8,10.4-23.2,23.2-23.2h12.7v-26.6C152.4,122,143.3,113.7,132.1,113.7z
			 M94,183.9l-17.4,5.8c-2.2,0.7-4.5-0.5-5.3-2.6l-1.7-5.1c-0.7-2.2,0.5-4.5,2.6-5.3l17.4-5.8c2.2-0.7,4.5,0.5,5.3,2.7l1.7,5.1
			C97.4,180.8,96.2,183.2,94,183.9z M132.1,113.7H80.1c-11.2,0-20.3,8.3-20.3,18.5v79.2l-7,14.4c-0.6,1.3,0,2.8,1.4,3.3l5.6,2.3
			v22.7c0,10.2,9.1,18.5,20.3,18.5h36.4V182c0-12.8,10.4-23.2,23.2-23.2h12.7v-26.6C152.4,122,143.3,113.7,132.1,113.7z M94,183.9
			l-17.4,5.8c-2.2,0.7-4.5-0.5-5.3-2.6l-1.7-5.1c-0.7-2.2,0.5-4.5,2.6-5.3l17.4-5.8c2.2-0.7,4.5,0.5,5.3,2.7l1.7,5.1
			C97.4,180.8,96.2,183.2,94,183.9z M293.4,225.8l-7-14.4v-79.2c0-10.2-9.1-18.5-20.3-18.5h-52.1c-11.2,0-20.3,8.3-20.3,18.5v26.6
			h21.5c12.8,0,23.2,10.4,23.2,23.2v90.7h27.5c11.2,0,20.3-8.3,20.3-18.5v-22.7l5.6-2.3C293.4,228.6,294.1,227.1,293.4,225.8z
			 M276.6,181.9l-1.7,5.1c-0.7,2.2-3.1,3.4-5.3,2.6l-17.4-5.8c-2.2-0.7-3.4-3.1-2.7-5.3l1.7-5.1c0.7-2.2,3.1-3.4,5.3-2.7l17.4,5.8
			C276.1,177.3,277.3,179.7,276.6,181.9z M293.4,225.8l-7-14.4v-79.2c0-10.2-9.1-18.5-20.3-18.5h-52.1c-11.2,0-20.3,8.3-20.3,18.5
			v26.6h21.5c12.8,0,23.2,10.4,23.2,23.2v90.7h27.5c11.2,0,20.3-8.3,20.3-18.5v-22.7l5.6-2.3C293.4,228.6,294.1,227.1,293.4,225.8z
			 M276.6,181.9l-1.7,5.1c-0.7,2.2-3.1,3.4-5.3,2.6l-17.4-5.8c-2.2-0.7-3.4-3.1-2.7-5.3l1.7-5.1c0.7-2.2,3.1-3.4,5.3-2.7l17.4,5.8
			C276.1,177.3,277.3,179.7,276.6,181.9z M132.1,113.7H80.1c-11.2,0-20.3,8.3-20.3,18.5v79.2l-7,14.4c-0.6,1.3,0,2.8,1.4,3.3
			l5.6,2.3v22.7c0,10.2,9.1,18.5,20.3,18.5h36.4V182c0-12.8,10.4-23.2,23.2-23.2h12.7v-26.6C152.4,122,143.3,113.7,132.1,113.7z
			 M94,183.9l-17.4,5.8c-2.2,0.7-4.5-0.5-5.3-2.6l-1.7-5.1c-0.7-2.2,0.5-4.5,2.6-5.3l17.4-5.8c2.2-0.7,4.5,0.5,5.3,2.7l1.7,5.1
			C97.4,180.8,96.2,183.2,94,183.9z M132.1,113.7H80.1c-11.2,0-20.3,8.3-20.3,18.5v79.2l-7,14.4c-0.6,1.3,0,2.8,1.4,3.3l5.6,2.3
			v22.7c0,10.2,9.1,18.5,20.3,18.5h36.4V182c0-12.8,10.4-23.2,23.2-23.2h12.7v-26.6C152.4,122,143.3,113.7,132.1,113.7z M94,183.9
			l-17.4,5.8c-2.2,0.7-4.5-0.5-5.3-2.6l-1.7-5.1c-0.7-2.2,0.5-4.5,2.6-5.3l17.4-5.8c2.2-0.7,4.5,0.5,5.3,2.7l1.7,5.1
			C97.4,180.8,96.2,183.2,94,183.9z M293.4,225.8l-7-14.4v-79.2c0-10.2-9.1-18.5-20.3-18.5h-52.1c-11.2,0-20.3,8.3-20.3,18.5v26.6
			h21.5c12.8,0,23.2,10.4,23.2,23.2v90.7h27.5c11.2,0,20.3-8.3,20.3-18.5v-22.7l5.6-2.3C293.4,228.6,294.1,227.1,293.4,225.8z
			 M276.6,181.9l-1.7,5.1c-0.7,2.2-3.1,3.4-5.3,2.6l-17.4-5.8c-2.2-0.7-3.4-3.1-2.7-5.3l1.7-5.1c0.7-2.2,3.1-3.4,5.3-2.7l17.4,5.8
			C276.1,177.3,277.3,179.7,276.6,181.9z M293.4,225.8l-7-14.4v-79.2c0-10.2-9.1-18.5-20.3-18.5h-52.1c-11.2,0-20.3,8.3-20.3,18.5
			v26.6h21.5c12.8,0,23.2,10.4,23.2,23.2v90.7h27.5c11.2,0,20.3-8.3,20.3-18.5v-22.7l5.6-2.3C293.4,228.6,294.1,227.1,293.4,225.8z
			 M276.6,181.9l-1.7,5.1c-0.7,2.2-3.1,3.4-5.3,2.6l-17.4-5.8c-2.2-0.7-3.4-3.1-2.7-5.3l1.7-5.1c0.7-2.2,3.1-3.4,5.3-2.7l17.4,5.8
			C276.1,177.3,277.3,179.7,276.6,181.9z M132.1,113.7H80.1c-11.2,0-20.3,8.3-20.3,18.5v79.2l-7,14.4c-0.6,1.3,0,2.8,1.4,3.3
			l5.6,2.3v22.7c0,10.2,9.1,18.5,20.3,18.5h36.4V182c0-12.8,10.4-23.2,23.2-23.2h12.7v-26.6C152.4,122,143.3,113.7,132.1,113.7z
			 M94,183.9l-17.4,5.8c-2.2,0.7-4.5-0.5-5.3-2.6l-1.7-5.1c-0.7-2.2,0.5-4.5,2.6-5.3l17.4-5.8c2.2-0.7,4.5,0.5,5.3,2.7l1.7,5.1
			C97.4,180.8,96.2,183.2,94,183.9z M132.1,113.7H80.1c-11.2,0-20.3,8.3-20.3,18.5v79.2l-7,14.4c-0.6,1.3,0,2.8,1.4,3.3l5.6,2.3
			v22.7c0,10.2,9.1,18.5,20.3,18.5h36.4V182c0-12.8,10.4-23.2,23.2-23.2h12.7v-26.6C152.4,122,143.3,113.7,132.1,113.7z M94,183.9
			l-17.4,5.8c-2.2,0.7-4.5-0.5-5.3-2.6l-1.7-5.1c-0.7-2.2,0.5-4.5,2.6-5.3l17.4-5.8c2.2-0.7,4.5,0.5,5.3,2.7l1.7,5.1
			C97.4,180.8,96.2,183.2,94,183.9z M293.4,225.8l-7-14.4v-79.2c0-10.2-9.1-18.5-20.3-18.5h-52.1c-11.2,0-20.3,8.3-20.3,18.5v26.6
			h21.5c12.8,0,23.2,10.4,23.2,23.2v90.7h27.5c11.2,0,20.3-8.3,20.3-18.5v-22.7l5.6-2.3C293.4,228.6,294.1,227.1,293.4,225.8z
			 M276.6,181.9l-1.7,5.1c-0.7,2.2-3.1,3.4-5.3,2.6l-17.4-5.8c-2.2-0.7-3.4-3.1-2.7-5.3l1.7-5.1c0.7-2.2,3.1-3.4,5.3-2.7l17.4,5.8
			C276.1,177.3,277.3,179.7,276.6,181.9z M132.1,113.7H80.1c-11.2,0-20.3,8.3-20.3,18.5v79.2l-7,14.4c-0.6,1.3,0,2.8,1.4,3.3
			l5.6,2.3v22.7c0,10.2,9.1,18.5,20.3,18.5h36.4V182c0-12.8,10.4-23.2,23.2-23.2h12.7v-26.6C152.4,122,143.3,113.7,132.1,113.7z
			 M94,183.9l-17.4,5.8c-2.2,0.7-4.5-0.5-5.3-2.6l-1.7-5.1c-0.7-2.2,0.5-4.5,2.6-5.3l17.4-5.8c2.2-0.7,4.5,0.5,5.3,2.7l1.7,5.1
			C97.4,180.8,96.2,183.2,94,183.9z M132.1,113.7H80.1c-11.2,0-20.3,8.3-20.3,18.5v79.2l-7,14.4c-0.6,1.3,0,2.8,1.4,3.3l5.6,2.3
			v22.7c0,10.2,9.1,18.5,20.3,18.5h36.4V182c0-12.8,10.4-23.2,23.2-23.2h12.7v-26.6C152.4,122,143.3,113.7,132.1,113.7z M94,183.9
			l-17.4,5.8c-2.2,0.7-4.5-0.5-5.3-2.6l-1.7-5.1c-0.7-2.2,0.5-4.5,2.6-5.3l17.4-5.8c2.2-0.7,4.5,0.5,5.3,2.7l1.7,5.1
			C97.4,180.8,96.2,183.2,94,183.9z M293.4,225.8l-7-14.4v-79.2c0-10.2-9.1-18.5-20.3-18.5h-52.1c-11.2,0-20.3,8.3-20.3,18.5v26.6
			h21.5c12.8,0,23.2,10.4,23.2,23.2v90.7h27.5c11.2,0,20.3-8.3,20.3-18.5v-22.7l5.6-2.3C293.4,228.6,294.1,227.1,293.4,225.8z
			 M276.6,181.9l-1.7,5.1c-0.7,2.2-3.1,3.4-5.3,2.6l-17.4-5.8c-2.2-0.7-3.4-3.1-2.7-5.3l1.7-5.1c0.7-2.2,3.1-3.4,5.3-2.7l17.4,5.8
			C276.1,177.3,277.3,179.7,276.6,181.9z M132.1,113.7H80.1c-11.2,0-20.3,8.3-20.3,18.5v79.2l-7,14.4c-0.6,1.3,0,2.8,1.4,3.3
			l5.6,2.3v22.7c0,10.2,9.1,18.5,20.3,18.5h36.4V182c0-12.8,10.4-23.2,23.2-23.2h12.7v-26.6C152.4,122,143.3,113.7,132.1,113.7z
			 M94,183.9l-17.4,5.8c-2.2,0.7-4.5-0.5-5.3-2.6l-1.7-5.1c-0.7-2.2,0.5-4.5,2.6-5.3l17.4-5.8c2.2-0.7,4.5,0.5,5.3,2.7l1.7,5.1
			C97.4,180.8,96.2,183.2,94,183.9z M293.4,225.8l-7-14.4v-79.2c0-10.2-9.1-18.5-20.3-18.5h-52.1c-11.2,0-20.3,8.3-20.3,18.5v26.6
			h21.5c12.8,0,23.2,10.4,23.2,23.2v90.7h27.5c11.2,0,20.3-8.3,20.3-18.5v-22.7l5.6-2.3C293.4,228.6,294.1,227.1,293.4,225.8z
			 M276.6,181.9l-1.7,5.1c-0.7,2.2-3.1,3.4-5.3,2.6l-17.4-5.8c-2.2-0.7-3.4-3.1-2.7-5.3l1.7-5.1c0.7-2.2,3.1-3.4,5.3-2.7l17.4,5.8
			C276.1,177.3,277.3,179.7,276.6,181.9z M132.1,113.7H80.1c-11.2,0-20.3,8.3-20.3,18.5v79.2l-7,14.4c-0.6,1.3,0,2.8,1.4,3.3
			l5.6,2.3v22.7c0,10.2,9.1,18.5,20.3,18.5h36.4V182c0-12.8,10.4-23.2,23.2-23.2h12.7v-26.6C152.4,122,143.3,113.7,132.1,113.7z
			 M94,183.9l-17.4,5.8c-2.2,0.7-4.5-0.5-5.3-2.6l-1.7-5.1c-0.7-2.2,0.5-4.5,2.6-5.3l17.4-5.8c2.2-0.7,4.5,0.5,5.3,2.7l1.7,5.1
			C97.4,180.8,96.2,183.2,94,183.9z"/>
		<path class="st0" d="M293.4,225.8l-7-14.4v-79.2c0-10.2-9.1-18.5-20.3-18.5h-52.1c-11.2,0-20.3,8.3-20.3,18.5v26.6h21.5
			c12.8,0,23.2,10.4,23.2,23.2v90.7h27.5c11.2,0,20.3-8.3,20.3-18.5v-22.7l5.6-2.3C293.4,228.6,294.1,227.1,293.4,225.8z
			 M276.6,181.9l-1.7,5.1c-0.7,2.2-3.1,3.4-5.3,2.6l-17.4-5.8c-2.2-0.7-3.4-3.1-2.7-5.3l1.7-5.1c0.7-2.2,3.1-3.4,5.3-2.7l17.4,5.8
			C276.1,177.3,277.3,179.7,276.6,181.9z"/>
		<path class="st0" d="M293.4,225.8l-7-14.4v-79.2c0-10.2-9.1-18.5-20.3-18.5h-52.1c-11.2,0-20.3,8.3-20.3,18.5v26.6h21.5
			c12.8,0,23.2,10.4,23.2,23.2v90.7h27.5c11.2,0,20.3-8.3,20.3-18.5v-22.7l5.6-2.3C293.4,228.6,294.1,227.1,293.4,225.8z
			 M276.6,181.9l-1.7,5.1c-0.7,2.2-3.1,3.4-5.3,2.6l-17.4-5.8c-2.2-0.7-3.4-3.1-2.7-5.3l1.7-5.1c0.7-2.2,3.1-3.4,5.3-2.7l17.4,5.8
			C276.1,177.3,277.3,179.7,276.6,181.9z"/>
		<path class="st0" d="M132.1,113.7H80.1c-11.2,0-20.3,8.3-20.3,18.5v79.2l-7,14.4c-0.6,1.3,0,2.8,1.4,3.3l5.6,2.3v22.7
			c0,10.2,9.1,18.5,20.3,18.5h36.4V182c0-12.8,10.4-23.2,23.2-23.2h12.7v-26.6C152.4,122,143.3,113.7,132.1,113.7z M94,183.9
			l-17.4,5.8c-2.2,0.7-4.5-0.5-5.3-2.6l-1.7-5.1c-0.7-2.2,0.5-4.5,2.6-5.3l17.4-5.8c2.2-0.7,4.5,0.5,5.3,2.7l1.7,5.1
			C97.4,180.8,96.2,183.2,94,183.9z"/>
		<path class="st0" d="M132.1,113.7H80.1c-11.2,0-20.3,8.3-20.3,18.5v79.2l-7,14.4c-0.6,1.3,0,2.8,1.4,3.3l5.6,2.3v22.7
			c0,10.2,9.1,18.5,20.3,18.5h36.4V182c0-12.8,10.4-23.2,23.2-23.2h12.7v-26.6C152.4,122,143.3,113.7,132.1,113.7z M94,183.9
			l-17.4,5.8c-2.2,0.7-4.5-0.5-5.3-2.6l-1.7-5.1c-0.7-2.2,0.5-4.5,2.6-5.3l17.4-5.8c2.2-0.7,4.5,0.5,5.3,2.7l1.7,5.1
			C97.4,180.8,96.2,183.2,94,183.9z"/>
		<path class="st0" d="M215.4,172.2h-75.7c-5.4,0-9.8,4.4-9.8,9.8v141.3c0,5.4,4.4,9.8,9.8,9.8h75.7c5.4,0,9.8-4.4,9.8-9.8V182
			C225.2,176.6,220.8,172.2,215.4,172.2z M137,245.4l1.4-4.3c0.8-2.4,3.4-3.7,5.8-2.9l8.1,2.7l13.8,4.6l0.6,0.2
			c2.4,0.8,3.7,3.4,2.9,5.8l-1.4,4.3c-0.4,1.2-1.3,2.2-2.4,2.7v0c-1,0.5-2.3,0.6-3.5,0.2l-10.1-3.3l-12.4-4.1
			C137.5,250.5,136.2,247.9,137,245.4z M196,313.6c0,2.6-2.1,4.6-4.6,4.6h-28.7c-2.5,0-4.6-2.1-4.6-4.6v-4.5c0-2.5,2.1-4.6,4.6-4.6
			h28.7c2.5,0,4.6,2.1,4.6,4.6V313.6z M215,251.3l-20.7,6.8l-1.8,0.6c-2.4,0.8-5-0.5-5.8-2.9l-1.4-4.3c-0.8-2.4,0.5-5,2.9-5.8
			l5.7-1.9l16.9-5.6c2.4-0.8,5,0.5,5.8,2.9l1.4,4.3C218.8,247.9,217.4,250.5,215,251.3z"/>
	</g>
</g>
<g>
</g>
<g>
</g>
<g>
</g>
<g>
</g>
<g>
</g>
<g>
</g>
</svg>
